<svg width="32" height="32" viewBox="0 0 32 32" fill="none" xmlns="http://www.w3.org/2000/svg">
<path d="M22.3333 4.74675V2.66675C22.3333 2.12008 21.88 1.66675 21.3333 1.66675C20.7866 1.66675 20.3333 2.12008 20.3333 2.66675V4.66675H11.6666V2.66675C11.6666 2.12008 11.2133 1.66675 10.6666 1.66675C10.12 1.66675 9.66665 2.12008 9.66665 2.66675V4.74675C6.06665 5.08008 4.31998 7.22675 4.05331 10.4134C4.02665 10.8001 4.34665 11.1201 4.71998 11.1201H27.28C27.6666 11.1201 27.9866 10.7867 27.9466 10.4134C27.68 7.22675 25.9333 5.08008 22.3333 4.74675Z" fill="white"/>
<path d="M26.6667 13.1201H5.33333C4.6 13.1201 4 13.7201 4 14.4535V22.6668C4 26.6668 6 29.3335 10.6667 29.3335H21.3333C26 29.3335 28 26.6668 28 22.6668V14.4535C28 13.7201 27.4 13.1201 26.6667 13.1201ZM12.28 24.2801C12.1467 24.4001 12 24.4935 11.84 24.5601C11.68 24.6268 11.5067 24.6668 11.3333 24.6668C11.16 24.6668 10.9867 24.6268 10.8267 24.5601C10.6667 24.4935 10.52 24.4001 10.3867 24.2801C10.1467 24.0268 10 23.6801 10 23.3335C10 22.9868 10.1467 22.6401 10.3867 22.3868C10.52 22.2668 10.6667 22.1735 10.8267 22.1068C11.1467 21.9735 11.52 21.9735 11.84 22.1068C12 22.1735 12.1467 22.2668 12.28 22.3868C12.52 22.6401 12.6667 22.9868 12.6667 23.3335C12.6667 23.6801 12.52 24.0268 12.28 24.2801ZM12.56 19.1735C12.4933 19.3335 12.4 19.4801 12.28 19.6135C12.1467 19.7335 12 19.8268 11.84 19.8935C11.68 19.9601 11.5067 20.0001 11.3333 20.0001C11.16 20.0001 10.9867 19.9601 10.8267 19.8935C10.6667 19.8268 10.52 19.7335 10.3867 19.6135C10.2667 19.4801 10.1733 19.3335 10.1067 19.1735C10.04 19.0135 10 18.8401 10 18.6668C10 18.4935 10.04 18.3201 10.1067 18.1601C10.1733 18.0001 10.2667 17.8535 10.3867 17.7201C10.52 17.6001 10.6667 17.5068 10.8267 17.4401C11.1467 17.3068 11.52 17.3068 11.84 17.4401C12 17.5068 12.1467 17.6001 12.28 17.7201C12.4 17.8535 12.4933 18.0001 12.56 18.1601C12.6267 18.3201 12.6667 18.4935 12.6667 18.6668C12.6667 18.8401 12.6267 19.0135 12.56 19.1735ZM16.9467 19.6135C16.8133 19.7335 16.6667 19.8268 16.5067 19.8935C16.3467 19.9601 16.1733 20.0001 16 20.0001C15.8267 20.0001 15.6533 19.9601 15.4933 19.8935C15.3333 19.8268 15.1867 19.7335 15.0533 19.6135C14.8133 19.3601 14.6667 19.0135 14.6667 18.6668C14.6667 18.3201 14.8133 17.9735 15.0533 17.7201C15.1867 17.6001 15.3333 17.5068 15.4933 17.4401C15.8133 17.2935 16.1867 17.2935 16.5067 17.4401C16.6667 17.5068 16.8133 17.6001 16.9467 17.7201C17.1867 17.9735 17.3333 18.3201 17.3333 18.6668C17.3333 19.0135 17.1867 19.3601 16.9467 19.6135Z" fill="white"/>
</svg>
