<svg width="49" height="48" viewBox="0 0 49 48" fill="none" xmlns="http://www.w3.org/2000/svg">
<path d="M44.3866 44H4.3866C3.5666 44 2.8866 43.32 2.8866 42.5C2.8866 41.68 3.5666 41 4.3866 41H44.3866C45.2066 41 45.8866 41.68 45.8866 42.5C45.8866 43.32 45.2066 44 44.3866 44Z" fill="#575757"/>
<path d="M19.8866 8V44H28.8866V8C28.8866 5.8 27.9866 4 25.2866 4H23.4866C20.7866 4 19.8866 5.8 19.8866 8Z" fill="#575757"/>
<path d="M6.3866 20V44H14.3866V20C14.3866 17.8 13.5866 16 11.1866 16H9.5866C7.1866 16 6.3866 17.8 6.3866 20Z" fill="#575757"/>
<path d="M34.3866 30V44H42.3866V30C42.3866 27.8 41.5866 26 39.1866 26H37.5866C35.1866 26 34.3866 27.8 34.3866 30Z" fill="#575757"/>
</svg>
