<svg width="32" height="32" viewBox="0 0 32 32" fill="none" xmlns="http://www.w3.org/2000/svg">
<path d="M16.0003 2.66663C8.65366 2.66663 2.66699 8.65329 2.66699 16C2.66699 23.3466 8.65366 29.3333 16.0003 29.3333C23.347 29.3333 29.3337 23.3466 29.3337 16C29.3337 8.65329 23.347 2.66663 16.0003 2.66663ZM21.8003 20.76C21.6137 21.08 21.2803 21.2533 20.9337 21.2533C20.7603 21.2533 20.587 21.2133 20.427 21.1066L16.2937 18.64C15.267 18.0266 14.507 16.68 14.507 15.4933V10.0266C14.507 9.47996 14.9603 9.02663 15.507 9.02663C16.0537 9.02663 16.507 9.47996 16.507 10.0266V15.4933C16.507 15.9733 16.907 16.68 17.3203 16.92L21.4537 19.3866C21.9337 19.6666 22.0937 20.28 21.8003 20.76Z" fill="#696969"/>
</svg>
