<svg width="32" height="32" viewBox="0 0 32 32" fill="none" xmlns="http://www.w3.org/2000/svg">
<path d="M28.3337 12.2C25.2537 7.36003 20.747 4.57336 16.0003 4.57336C13.627 4.57336 11.3203 5.2667 9.21366 6.56003C7.10699 7.8667 5.21366 9.77336 3.66699 12.2C2.33366 14.2934 2.33366 17.6934 3.66699 19.7867C6.74699 24.64 11.2537 27.4134 16.0003 27.4134C18.3737 27.4134 20.6803 26.72 22.787 25.4267C24.8937 24.12 26.787 22.2134 28.3337 19.7867C29.667 17.7067 29.667 14.2934 28.3337 12.2ZM16.0003 21.3867C13.0137 21.3867 10.6137 18.9734 10.6137 16C10.6137 13.0267 13.0137 10.6134 16.0003 10.6134C18.987 10.6134 21.387 13.0267 21.387 16C21.387 18.9734 18.987 21.3867 16.0003 21.3867Z" fill="#696969"/>
<path d="M16.0002 12.1866C13.9069 12.1866 12.2002 13.8933 12.2002 16C12.2002 18.0933 13.9069 19.8 16.0002 19.8C18.0935 19.8 19.8135 18.0933 19.8135 16C19.8135 13.9066 18.0935 12.1866 16.0002 12.1866Z" fill="#696969"/>
</svg>
