<svg width="51" height="48" viewBox="0 0 51 48" fill="none" xmlns="http://www.w3.org/2000/svg">
<path d="M33.5733 6.20001C29.9533 6.20001 26.7133 7.96001 24.6933 10.66C22.6733 7.96001 19.4333 6.20001 15.8133 6.20001C9.6733 6.20001 4.6933 11.2 4.6933 17.38C4.6933 19.76 5.0733 21.96 5.7333 24C8.8933 34 18.6333 39.98 23.4533 41.62C24.1333 41.86 25.2533 41.86 25.9333 41.62C30.7533 39.98 40.4933 34 43.6533 24C44.3133 21.96 44.6933 19.76 44.6933 17.38C44.6933 11.2 39.7133 6.20001 33.5733 6.20001Z" fill="#575757"/>
<path d="M4.6933 22.3969L17.8867 22.3553C19.5359 22.3553 21.383 23.5407 21.9986 24.9965L24.5054 30.9861C25.0771 32.338 25.9787 32.338 26.5504 30.9861L31.5858 18.903C32.0696 17.7383 32.9712 17.6967 33.5868 18.799L35.8737 22.896C36.5554 24.1231 38.3145 25.1213 39.7658 25.1213H48.6933" stroke="white" stroke-width="4" stroke-linecap="round" stroke-linejoin="round"/>
</svg>
