<svg width="48" height="48" viewBox="0 0 48 48" fill="none" xmlns="http://www.w3.org/2000/svg">
<path d="M35.06 15.54C34.92 15.52 34.78 15.52 34.64 15.54C31.54 15.44 29.08 12.9 29.08 9.78C29.08 6.6 31.66 4 34.86 4C38.04 4 40.64 6.58 40.64 9.78C40.62 12.9 38.16 15.44 35.06 15.54Z" fill="#575757"/>
<path d="M41.58 29.4C39.34 30.9 36.2 31.46 33.3 31.08C34.06 29.44 34.46 27.62 34.48 25.7C34.48 23.7 34.04 21.8 33.2 20.14C36.16 19.74 39.3 20.3 41.56 21.8C44.72 23.88 44.72 27.3 41.58 29.4Z" fill="#575757"/>
<path d="M12.88 15.54C13.02 15.52 13.16 15.52 13.3 15.54C16.4 15.44 18.86 12.9 18.86 9.78C18.86 6.58 16.28 4 13.08 4C9.90001 4 7.32001 6.58 7.32001 9.78C7.32001 12.9 9.78001 15.44 12.88 15.54Z" fill="#575757"/>
<path d="M13.1 25.7C13.1 27.64 13.52 29.48 14.28 31.14C11.46 31.44 8.51999 30.84 6.35999 29.42C3.19999 27.32 3.19999 23.9 6.35999 21.8C8.49999 20.36 11.52 19.78 14.36 20.1C13.54 21.78 13.1 23.68 13.1 25.7Z" fill="#575757"/>
<path d="M24.24 31.74C24.08 31.72 23.9 31.72 23.72 31.74C20.04 31.62 17.1 28.6 17.1 24.88C17.12 21.08 20.18 18 24 18C27.8 18 30.88 21.08 30.88 24.88C30.86 28.6 27.94 31.62 24.24 31.74Z" fill="#575757"/>
<path d="M17.74 35.88C14.72 37.9 14.72 41.22 17.74 43.22C21.18 45.52 26.82 45.52 30.26 43.22C33.28 41.2 33.28 37.88 30.26 35.88C26.84 33.58 21.2 33.58 17.74 35.88Z" fill="#575757"/>
</svg>
