<svg width="49" height="48" viewBox="0 0 49 48" fill="none" xmlns="http://www.w3.org/2000/svg">
<path d="M33.7398 31.28C35.0798 30.4 36.8398 31.36 36.8398 32.96V35.54C36.8398 38.08 34.8598 40.8 32.4798 41.6L26.0998 43.72C24.9798 44.1 23.1598 44.1 22.0598 43.72L15.6798 41.6C13.2798 40.8 11.3198 38.08 11.3198 35.54V32.94C11.3198 31.36 13.0798 30.4 14.3998 31.26L18.5198 33.94C20.0998 35 22.0998 35.52 24.0998 35.52C26.0998 35.52 28.0998 35 29.6798 33.94L33.7398 31.28Z" fill="#575757"/>
<path d="M40.0398 12.92L28.0598 5.06C25.8998 3.64 22.3398 3.64 20.1798 5.06L8.13981 12.92C4.27981 15.42 4.27981 21.08 8.13981 23.6L11.3398 25.68L20.1798 31.44C22.3398 32.86 25.8998 32.86 28.0598 31.44L36.8398 25.68L39.5798 23.88V30C39.5798 30.82 40.2598 31.5 41.0798 31.5C41.8998 31.5 42.5798 30.82 42.5798 30V20.16C43.3798 17.58 42.5598 14.58 40.0398 12.92Z" fill="#575757"/>
</svg>
