<svg width="25" height="24" viewBox="0 0 25 24" fill="none" xmlns="http://www.w3.org/2000/svg">
<path d="M21.557 7.18066C21.5663 7.39186 21.5663 7.59346 21.5663 7.80466C21.5755 14.2079 16.8711 21.5999 8.26781 21.5999C5.73036 21.5999 3.23921 20.8415 1.09998 19.4207C1.47041 19.4687 1.84084 19.4879 2.21127 19.4879C4.31346 19.4879 6.36009 18.7583 8.01777 17.4047C6.01744 17.3663 4.2579 16.0127 3.64669 14.0351C4.3505 14.1791 5.07284 14.1503 5.75814 13.9487C3.58186 13.5071 2.01679 11.5199 2.00753 9.20626C2.00753 9.18706 2.00753 9.16786 2.00753 9.14866C2.65578 9.52306 3.38738 9.73426 4.12825 9.75346C2.08162 8.33266 1.44262 5.50065 2.68357 3.28304C5.06358 6.31665 8.56415 8.15026 12.324 8.35186C11.9443 6.67185 12.4629 4.90545 13.6761 3.71505C15.556 1.88144 18.5195 1.97744 20.2975 3.92625C21.344 3.71505 22.3534 3.31184 23.2702 2.74544C22.9183 3.86865 22.1867 4.81905 21.2144 5.42385C22.1404 5.30865 23.048 5.04945 23.9 4.66545C23.2702 5.64465 22.4738 6.48945 21.557 7.18066Z" fill="white"/>
</svg>
