<svg width="25" height="24" viewBox="0 0 25 24" fill="none" xmlns="http://www.w3.org/2000/svg">
<g clip-path="url(#clip0_102_1112)">
<path d="M24.0057 6.22941C23.7289 5.20141 22.9184 4.39087 21.8904 4.1141C20.0123 3.6001 12.4999 3.6001 12.4999 3.6001C12.4999 3.6001 4.98762 3.6001 3.10954 4.09433C2.10131 4.3711 1.271 5.20141 0.994232 6.22941C0.5 8.10749 0.5 12.002 0.5 12.002C0.5 12.002 0.5 15.9164 0.994232 17.7747C1.271 18.8027 2.08154 19.6132 3.10954 19.89C5.00739 20.404 12.4999 20.404 12.4999 20.404C12.4999 20.404 20.0123 20.404 21.8904 19.9097C22.9184 19.633 23.7289 18.8224 24.0057 17.7944C24.4999 15.9164 24.4999 12.0218 24.4999 12.0218C24.4999 12.0218 24.5197 8.10749 24.0057 6.22941Z" fill="white"/>
<path d="M10.1079 15.6001L16.355 12.0021L10.1079 8.40405V15.6001Z" fill="black"/>
</g>
<defs>
<clipPath id="clip0_102_1112">
<rect width="24" height="24" fill="white" transform="translate(0.5)"/>
</clipPath>
</defs>
</svg>
